<?xml version="1.0" encoding="iso-8859-1"?>
<!-- Generator: Adobe Illustrator 19.0.0, SVG Export Plug-In . SVG Version: 6.00 Build 0)  -->
<svg version="1.1" id="Capa_1" xmlns="http://www.w3.org/2000/svg" xmlns:xlink="http://www.w3.org/1999/xlink" x="0px" y="0px"
	 viewBox="0 0 463 463" style="enable-background:new 0 0 463 463;" xml:space="preserve">
<g>
	<path d="M71.5,296c-4.142,0-7.5,3.358-7.5,7.5v8c0,4.142,3.358,7.5,7.5,7.5s7.5-3.358,7.5-7.5v-8C79,299.358,75.642,296,71.5,296z"
		/>
	<path d="M71.5,328c-4.142,0-7.5,3.358-7.5,7.5v8c0,4.142,3.358,7.5,7.5,7.5s7.5-3.358,7.5-7.5v-8C79,331.358,75.642,328,71.5,328z"
		/>
	<path d="M71.5,360c-4.142,0-7.5,3.358-7.5,7.5v8c0,4.142,3.358,7.5,7.5,7.5s7.5-3.358,7.5-7.5v-8C79,363.358,75.642,360,71.5,360z"
		/>
	<path d="M103.5,296c-4.142,0-7.5,3.358-7.5,7.5v8c0,4.142,3.358,7.5,7.5,7.5s7.5-3.358,7.5-7.5v-8
		C111,299.358,107.642,296,103.5,296z"/>
	<path d="M103.5,328c-4.142,0-7.5,3.358-7.5,7.5v8c0,4.142,3.358,7.5,7.5,7.5s7.5-3.358,7.5-7.5v-8
		C111,331.358,107.642,328,103.5,328z"/>
	<path d="M103.5,360c-4.142,0-7.5,3.358-7.5,7.5v8c0,4.142,3.358,7.5,7.5,7.5s7.5-3.358,7.5-7.5v-8
		C111,363.358,107.642,360,103.5,360z"/>
	<path d="M167.5,296c-4.142,0-7.5,3.358-7.5,7.5v8c0,4.142,3.358,7.5,7.5,7.5s7.5-3.358,7.5-7.5v-8
		C175,299.358,171.642,296,167.5,296z"/>
	<path d="M167.5,328c-4.142,0-7.5,3.358-7.5,7.5v8c0,4.142,3.358,7.5,7.5,7.5s7.5-3.358,7.5-7.5v-8
		C175,331.358,171.642,328,167.5,328z"/>
	<path d="M167.5,360c-4.142,0-7.5,3.358-7.5,7.5v8c0,4.142,3.358,7.5,7.5,7.5s7.5-3.358,7.5-7.5v-8
		C175,363.358,171.642,360,167.5,360z"/>
	<path d="M199.5,296c-4.142,0-7.5,3.358-7.5,7.5v8c0,4.142,3.358,7.5,7.5,7.5s7.5-3.358,7.5-7.5v-8
		C207,299.358,203.642,296,199.5,296z"/>
	<path d="M199.5,328c-4.142,0-7.5,3.358-7.5,7.5v8c0,4.142,3.358,7.5,7.5,7.5s7.5-3.358,7.5-7.5v-8
		C207,331.358,203.642,328,199.5,328z"/>
	<path d="M199.5,360c-4.142,0-7.5,3.358-7.5,7.5v8c0,4.142,3.358,7.5,7.5,7.5s7.5-3.358,7.5-7.5v-8
		C207,363.358,203.642,360,199.5,360z"/>
	<path d="M263.5,296c-4.142,0-7.5,3.358-7.5,7.5v8c0,4.142,3.358,7.5,7.5,7.5s7.5-3.358,7.5-7.5v-8
		C271,299.358,267.642,296,263.5,296z"/>
	<path d="M263.5,328c-4.142,0-7.5,3.358-7.5,7.5v8c0,4.142,3.358,7.5,7.5,7.5s7.5-3.358,7.5-7.5v-8
		C271,331.358,267.642,328,263.5,328z"/>
	<path d="M263.5,360c-4.142,0-7.5,3.358-7.5,7.5v8c0,4.142,3.358,7.5,7.5,7.5s7.5-3.358,7.5-7.5v-8
		C271,363.358,267.642,360,263.5,360z"/>
	<path d="M295.5,296c-4.142,0-7.5,3.358-7.5,7.5v8c0,4.142,3.358,7.5,7.5,7.5s7.5-3.358,7.5-7.5v-8
		C303,299.358,299.642,296,295.5,296z"/>
	<path d="M295.5,328c-4.142,0-7.5,3.358-7.5,7.5v8c0,4.142,3.358,7.5,7.5,7.5s7.5-3.358,7.5-7.5v-8
		C303,331.358,299.642,328,295.5,328z"/>
	<path d="M295.5,360c-4.142,0-7.5,3.358-7.5,7.5v8c0,4.142,3.358,7.5,7.5,7.5s7.5-3.358,7.5-7.5v-8
		C303,363.358,299.642,360,295.5,360z"/>
	<path d="M359.5,319c4.142,0,7.5-3.358,7.5-7.5v-8c0-4.142-3.358-7.5-7.5-7.5s-7.5,3.358-7.5,7.5v8
		C352,315.642,355.358,319,359.5,319z"/>
	<path d="M359.5,351c4.142,0,7.5-3.358,7.5-7.5v-8c0-4.142-3.358-7.5-7.5-7.5s-7.5,3.358-7.5,7.5v8
		C352,347.642,355.358,351,359.5,351z"/>
	<path d="M359.5,383c4.142,0,7.5-3.358,7.5-7.5v-8c0-4.142-3.358-7.5-7.5-7.5s-7.5,3.358-7.5,7.5v8
		C352,379.642,355.358,383,359.5,383z"/>
	<path d="M391.5,319c4.142,0,7.5-3.358,7.5-7.5v-8c0-4.142-3.358-7.5-7.5-7.5s-7.5,3.358-7.5,7.5v8
		C384,315.642,387.358,319,391.5,319z"/>
	<path d="M391.5,351c4.142,0,7.5-3.358,7.5-7.5v-8c0-4.142-3.358-7.5-7.5-7.5s-7.5,3.358-7.5,7.5v8
		C384,347.642,387.358,351,391.5,351z"/>
	<path d="M391.5,383c4.142,0,7.5-3.358,7.5-7.5v-8c0-4.142-3.358-7.5-7.5-7.5s-7.5,3.358-7.5,7.5v8
		C384,379.642,387.358,383,391.5,383z"/>
	<path d="M455.5,400H431V239.5c0-2.411-1.159-4.675-3.115-6.084c-1.956-1.409-4.47-1.792-6.757-1.031l-63.056,21.019L351.273,63
		h0.227c4.142,0,7.5-3.358,7.5-7.5s-3.358-7.5-7.5-7.5h-48c-4.142,0-7.5,3.358-7.5,7.5s3.358,7.5,7.5,7.5h0.227l-6.38,178.645
		l-35.275,11.758L255.273,63h0.227c4.142,0,7.5-3.358,7.5-7.5s-3.358-7.5-7.5-7.5h-48c-4.142,0-7.5,3.358-7.5,7.5s3.358,7.5,7.5,7.5
		h0.227l-6.38,178.645l-35.275,11.758L159.273,63h0.227c4.142,0,7.5-3.358,7.5-7.5s-3.358-7.5-7.5-7.5h-48
		c-4.142,0-7.5,3.358-7.5,7.5s3.358,7.5,7.5,7.5h0.227l-6.38,178.645l-68.219,22.74C34.066,265.406,32,268.272,32,271.5V400H7.5
		c-4.142,0-7.5,3.358-7.5,7.5s3.358,7.5,7.5,7.5h448c4.142,0,7.5-3.358,7.5-7.5S459.642,400,455.5,400z M416,400h-81V276.906l81-27
		V400z M143,276.906l81-27V400h-81V276.906z M239,276.906l81-27V400h-81V276.906z M315.88,143h23.241l0.893,25h-25.026L315.88,143z
		 M338.585,128h-22.169l0.893-25h20.384L338.585,128z M314.451,183h26.098l0.893,25h-27.884L314.451,183z M336.263,63l0.893,25
		h-19.312l0.893-25H336.263z M313.023,223h28.955l1.262,35.348l-8.24,2.747V239.5c0-2.411-1.159-4.675-3.115-6.084
		c-1.956-1.409-4.469-1.792-6.757-1.031l-12.591,4.197L313.023,223z M219.88,143h23.241l0.893,25h-25.026L219.88,143z M242.585,128
		h-22.169l0.893-25h20.384L242.585,128z M218.451,183h26.098l0.893,25h-27.884L218.451,183z M240.263,63l0.893,25h-19.312l0.893-25
		H240.263z M217.022,223h28.955l1.262,35.348l-8.24,2.747V239.5c0-2.411-1.159-4.675-3.115-6.084
		c-1.956-1.409-4.47-1.792-6.757-1.031l-12.591,4.197L217.022,223z M123.88,143h23.241l0.893,25h-25.026L123.88,143z M146.585,128
		h-22.169l0.893-25h20.383L146.585,128z M122.451,183h26.098l0.893,25h-27.883L122.451,183z M144.263,63l0.893,25h-19.312l0.893-25
		H144.263z M121.023,223h28.955l1.262,35.348l-8.24,2.747V239.5c0-2.411-1.159-4.675-3.115-6.084
		c-1.956-1.409-4.47-1.792-6.757-1.031l-12.591,4.197L121.023,223z M47,276.906l81-27V400H47V276.906z"/>
</g>
<g>
</g>
<g>
</g>
<g>
</g>
<g>
</g>
<g>
</g>
<g>
</g>
<g>
</g>
<g>
</g>
<g>
</g>
<g>
</g>
<g>
</g>
<g>
</g>
<g>
</g>
<g>
</g>
<g>
</g>
</svg>
